<?xml version="1.0" encoding="UTF-8" standalone="no"?>
<!DOCTYPE svg PUBLIC "-//W3C//DTD SVG 1.1//EN"
 "http://www.w3.org/Graphics/SVG/1.1/DTD/svg11.dtd">
<!-- Generated by graphviz version 2.40.1 (0)
 -->
<!-- Title: %3 Pages: 1 -->
<svg width="152pt" height="332pt"
 viewBox="0.00 0.00 152.00 332.00" xmlns="http://www.w3.org/2000/svg" xmlns:xlink="http://www.w3.org/1999/xlink">
<g id="graph0" class="graph" transform="scale(1 1) rotate(0) translate(4 328)">
<title>%3</title>
<polygon fill="#ffffff" stroke="transparent" points="-4,4 -4,-328 148,-328 148,4 -4,4"/>
<!-- 0 -->
<g id="node1" class="node">
<title>0</title>
<polygon fill="none" stroke="#000000" points="63,-324 13,-324 9,-320 9,-288 59,-288 63,-292 63,-324"/>
<polyline fill="none" stroke="#000000" points="59,-320 9,-320 "/>
<polyline fill="none" stroke="#000000" points="59,-320 59,-288 "/>
<polyline fill="none" stroke="#000000" points="59,-320 63,-324 "/>
<text text-anchor="middle" x="36" y="-302.3" font-family="Times-Roman" font-size="14.00" fill="#000000">0</text>
</g>
<!-- 5 -->
<g id="node6" class="node">
<title>5</title>
<ellipse fill="none" stroke="#000000" cx="18" cy="-234" rx="18" ry="18"/>
<text text-anchor="middle" x="18" y="-230.3" font-family="Times-Roman" font-size="14.00" fill="#000000">*</text>
</g>
<!-- 0&#45;&gt;5 -->
<g id="edge7" class="edge">
<title>0&#45;&gt;5</title>
<path fill="none" stroke="#000000" d="M25.5054,-287.8314C22.8299,-280.131 20.3199,-270.9743 18.4891,-262.4166"/>
<polygon fill="#000000" stroke="#000000" points="21.898,-261.604 16.6273,-252.4133 15.0162,-262.8849 21.898,-261.604"/>
</g>
<!-- 0&#45;&gt;5 -->
<g id="edge8" class="edge">
<title>0&#45;&gt;5</title>
<path fill="none" stroke="#000000" d="M37.4102,-287.8314C36.0848,-279.1429 33.6218,-268.6005 30.7592,-259.1562"/>
<polygon fill="#000000" stroke="#000000" points="34.0156,-257.8575 27.531,-249.479 27.3753,-260.0727 34.0156,-257.8575"/>
</g>
<!-- 6 -->
<g id="node7" class="node">
<title>6</title>
<ellipse fill="none" stroke="#000000" cx="72" cy="-234" rx="18" ry="18"/>
<text text-anchor="middle" x="72" y="-230.3" font-family="Times-Roman" font-size="14.00" fill="#000000">*</text>
</g>
<!-- 0&#45;&gt;6 -->
<g id="edge9" class="edge">
<title>0&#45;&gt;6</title>
<path fill="none" stroke="#000000" d="M39.1319,-287.8314C42.9837,-278.2628 48.7774,-266.4458 54.5414,-256.3233"/>
<polygon fill="#000000" stroke="#000000" points="57.6221,-257.9916 59.7699,-247.6167 51.6211,-254.3877 57.6221,-257.9916"/>
</g>
<!-- 0&#45;&gt;6 -->
<g id="edge11" class="edge">
<title>0&#45;&gt;6</title>
<path fill="none" stroke="#000000" d="M51.0367,-287.8314C55.8621,-279.7547 60.906,-270.0761 64.9827,-261.1668"/>
<polygon fill="#000000" stroke="#000000" points="68.2269,-262.4821 68.9706,-251.9134 61.7985,-259.7116 68.2269,-262.4821"/>
</g>
<!-- 1 -->
<g id="node2" class="node">
<title>1</title>
<polygon fill="none" stroke="#000000" points="144,-324 94,-324 90,-320 90,-288 140,-288 144,-292 144,-324"/>
<polyline fill="none" stroke="#000000" points="140,-320 90,-320 "/>
<polyline fill="none" stroke="#000000" points="140,-320 140,-288 "/>
<polyline fill="none" stroke="#000000" points="140,-320 144,-324 "/>
<text text-anchor="middle" x="117" y="-302.3" font-family="Times-Roman" font-size="14.00" fill="#000000">1</text>
</g>
<!-- 1&#45;&gt;6 -->
<g id="edge10" class="edge">
<title>1&#45;&gt;6</title>
<path fill="none" stroke="#000000" d="M99.6922,-287.8314C93.6428,-279.4579 87.1433,-269.3626 81.8453,-260.1878"/>
<polygon fill="#000000" stroke="#000000" points="84.9029,-258.4843 77.009,-251.4177 78.7732,-261.8647 84.9029,-258.4843"/>
</g>
<!-- 1&#45;&gt;6 -->
<g id="edge12" class="edge">
<title>1&#45;&gt;6</title>
<path fill="none" stroke="#000000" d="M111.597,-287.8314C106.3088,-277.8072 98.5809,-265.3153 91.2468,-254.8892"/>
<polygon fill="#000000" stroke="#000000" points="93.9831,-252.7022 85.241,-246.7168 88.3424,-256.8475 93.9831,-252.7022"/>
</g>
<!-- 7 -->
<g id="node8" class="node">
<title>7</title>
<ellipse fill="none" stroke="#000000" cx="126" cy="-234" rx="18" ry="18"/>
<text text-anchor="middle" x="126" y="-230.3" font-family="Times-Roman" font-size="14.00" fill="#000000">*</text>
</g>
<!-- 1&#45;&gt;7 -->
<g id="edge13" class="edge">
<title>1&#45;&gt;7</title>
<path fill="none" stroke="#000000" d="M113.3187,-287.8314C113.5488,-279.4774 114.6164,-269.4096 116.1934,-260.252"/>
<polygon fill="#000000" stroke="#000000" points="119.6263,-260.934 118.1729,-250.4393 112.7645,-259.5497 119.6263,-260.934"/>
</g>
<!-- 1&#45;&gt;7 -->
<g id="edge14" class="edge">
<title>1&#45;&gt;7</title>
<path fill="none" stroke="#000000" d="M125.2235,-287.8314C126.9628,-280.0125 128.3439,-270.6923 129.0977,-262.0221"/>
<polygon fill="#000000" stroke="#000000" points="132.599,-262.1005 129.6881,-251.9134 125.6109,-261.6923 132.599,-262.1005"/>
</g>
<!-- 2 -->
<g id="node3" class="node">
<title>2</title>
<ellipse fill="none" stroke="#000000" cx="99" cy="-18" rx="18" ry="18"/>
<text text-anchor="middle" x="99" y="-14.3" font-family="Times-Roman" font-size="14.00" fill="#000000">+</text>
</g>
<!-- 3 -->
<g id="node4" class="node">
<title>3</title>
<ellipse fill="none" stroke="#000000" cx="76" cy="-90" rx="18" ry="18"/>
<text text-anchor="middle" x="76" y="-86.3" font-family="Times-Roman" font-size="14.00" fill="#000000">+</text>
</g>
<!-- 3&#45;&gt;2 -->
<g id="edge1" class="edge">
<title>3&#45;&gt;2</title>
<path fill="none" stroke="#000000" d="M81.5677,-72.5708C84.2233,-64.2575 87.4601,-54.1249 90.4204,-44.8577"/>
<polygon fill="#000000" stroke="#000000" points="93.7746,-45.8595 93.4836,-35.2687 87.1066,-43.7294 93.7746,-45.8595"/>
</g>
<!-- 4 -->
<g id="node5" class="node">
<title>4</title>
<ellipse fill="none" stroke="#000000" cx="30" cy="-162" rx="18" ry="18"/>
<text text-anchor="middle" x="30" y="-158.3" font-family="Times-Roman" font-size="14.00" fill="#000000">+</text>
</g>
<!-- 4&#45;&gt;3 -->
<g id="edge3" class="edge">
<title>4&#45;&gt;3</title>
<path fill="none" stroke="#000000" d="M39.7554,-146.7307C45.8541,-137.1848 53.8375,-124.6891 60.759,-113.8554"/>
<polygon fill="#000000" stroke="#000000" points="63.8241,-115.5587 66.2586,-105.2473 57.9253,-111.7899 63.8241,-115.5587"/>
</g>
<!-- 5&#45;&gt;4 -->
<g id="edge5" class="edge">
<title>5&#45;&gt;4</title>
<path fill="none" stroke="#000000" d="M20.9663,-216.2022C22.2932,-208.2406 23.8888,-198.6671 25.3674,-189.7957"/>
<polygon fill="#000000" stroke="#000000" points="28.8345,-190.2819 27.0262,-179.8425 21.9298,-189.1311 28.8345,-190.2819"/>
</g>
<!-- 6&#45;&gt;3 -->
<g id="edge4" class="edge">
<title>6&#45;&gt;3</title>
<path fill="none" stroke="#000000" d="M72.5066,-215.7623C73.1889,-191.201 74.4098,-147.2474 75.2124,-118.3541"/>
<polygon fill="#000000" stroke="#000000" points="78.7184,-118.183 75.4975,-108.0896 71.7211,-117.9885 78.7184,-118.183"/>
</g>
<!-- 6&#45;&gt;4 -->
<g id="edge6" class="edge">
<title>6&#45;&gt;4</title>
<path fill="none" stroke="#000000" d="M62.8866,-218.3771C57.4379,-209.0364 50.3973,-196.9668 44.2293,-186.3932"/>
<polygon fill="#000000" stroke="#000000" points="47.1576,-184.4667 39.0956,-177.5924 41.1111,-187.9938 47.1576,-184.4667"/>
</g>
<!-- 7&#45;&gt;2 -->
<g id="edge2" class="edge">
<title>7&#45;&gt;2</title>
<path fill="none" stroke="#000000" d="M123.7444,-215.9555C119.0393,-178.3144 108.1483,-91.1867 102.5156,-46.1246"/>
<polygon fill="#000000" stroke="#000000" points="105.9815,-45.6337 101.2681,-36.1451 99.0356,-46.502 105.9815,-45.6337"/>
</g>
</g>
</svg>
