<?xml version="1.0" encoding="UTF-8" standalone="no"?>
<!DOCTYPE svg PUBLIC "-//W3C//DTD SVG 1.1//EN"
 "http://www.w3.org/Graphics/SVG/1.1/DTD/svg11.dtd">
<!-- Generated by graphviz version 2.40.1 (0)
 -->
<!-- Title: %3 Pages: 1 -->
<svg width="161pt" height="188pt"
 viewBox="0.00 0.00 161.00 188.00" xmlns="http://www.w3.org/2000/svg" xmlns:xlink="http://www.w3.org/1999/xlink">
<g id="graph0" class="graph" transform="scale(1 1) rotate(0) translate(4 184)">
<title>%3</title>
<polygon fill="#ffffff" stroke="transparent" points="-4,4 -4,-184 157,-184 157,4 -4,4"/>
<!-- 0 -->
<g id="node1" class="node">
<title>0</title>
<polygon fill="none" stroke="#000000" points="54,-108 0,-108 0,-72 54,-72 54,-108"/>
<text text-anchor="middle" x="27" y="-86.3" font-family="Times-Roman" font-size="14.00" fill="#000000">2</text>
</g>
<!-- 4 -->
<g id="node5" class="node">
<title>4</title>
<ellipse fill="none" stroke="#000000" cx="58" cy="-18" rx="18" ry="18"/>
<text text-anchor="middle" x="58" y="-14.3" font-family="Times-Roman" font-size="14.00" fill="#000000">/</text>
</g>
<!-- 0&#45;&gt;4 -->
<g id="edge2" class="edge">
<title>0&#45;&gt;4</title>
<path fill="none" stroke="#000000" d="M34.8226,-71.8314C38.4054,-63.51 42.7204,-53.4881 46.651,-44.3591"/>
<polygon fill="#000000" stroke="#000000" points="49.9723,-45.4953 50.7123,-34.9263 43.543,-42.727 49.9723,-45.4953"/>
</g>
<!-- 1 -->
<g id="node2" class="node">
<title>1</title>
<polygon fill="none" stroke="#000000" points="81,-180 31,-180 27,-176 27,-144 77,-144 81,-148 81,-180"/>
<polyline fill="none" stroke="#000000" points="77,-176 27,-176 "/>
<polyline fill="none" stroke="#000000" points="77,-176 77,-144 "/>
<polyline fill="none" stroke="#000000" points="77,-176 81,-180 "/>
<text text-anchor="middle" x="54" y="-158.3" font-family="Times-Roman" font-size="14.00" fill="#000000">0</text>
</g>
<!-- 3 -->
<g id="node4" class="node">
<title>3</title>
<ellipse fill="none" stroke="#000000" cx="90" cy="-90" rx="18" ry="18"/>
<text text-anchor="middle" x="90" y="-86.3" font-family="Times-Roman" font-size="14.00" fill="#000000">+</text>
</g>
<!-- 1&#45;&gt;3 -->
<g id="edge3" class="edge">
<title>1&#45;&gt;3</title>
<path fill="none" stroke="#000000" d="M63.0843,-143.8314C67.3511,-135.2978 72.5121,-124.9758 77.1688,-115.6624"/>
<polygon fill="#000000" stroke="#000000" points="80.4387,-116.9488 81.7804,-106.4393 74.1777,-113.8183 80.4387,-116.9488"/>
</g>
<!-- 2 -->
<g id="node3" class="node">
<title>2</title>
<polygon fill="none" stroke="#000000" points="153,-180 103,-180 99,-176 99,-144 149,-144 153,-148 153,-180"/>
<polyline fill="none" stroke="#000000" points="149,-176 99,-176 "/>
<polyline fill="none" stroke="#000000" points="149,-176 149,-144 "/>
<polyline fill="none" stroke="#000000" points="149,-176 153,-180 "/>
<text text-anchor="middle" x="126" y="-158.3" font-family="Times-Roman" font-size="14.00" fill="#000000">1</text>
</g>
<!-- 2&#45;&gt;3 -->
<g id="edge4" class="edge">
<title>2&#45;&gt;3</title>
<path fill="none" stroke="#000000" d="M116.9157,-143.8314C112.6489,-135.2978 107.4879,-124.9758 102.8312,-115.6624"/>
<polygon fill="#000000" stroke="#000000" points="105.8223,-113.8183 98.2196,-106.4393 99.5613,-116.9488 105.8223,-113.8183"/>
</g>
<!-- 3&#45;&gt;4 -->
<g id="edge1" class="edge">
<title>3&#45;&gt;4</title>
<path fill="none" stroke="#000000" d="M82.5781,-73.3008C78.7009,-64.577 73.8694,-53.7062 69.5188,-43.9174"/>
<polygon fill="#000000" stroke="#000000" points="72.6414,-42.3253 65.3816,-34.6087 66.2447,-45.1683 72.6414,-42.3253"/>
</g>
</g>
</svg>
